<svg height="512pt" viewBox="0 0 512 512" width="512pt" xmlns="http://www.w3.org/2000/svg" xmlns:xlink="http://www.w3.org/1999/xlink"><linearGradient id="a" gradientTransform="matrix(1 0 0 -1 0 -15158)" gradientUnits="userSpaceOnUse" x1="0" x2="512" y1="-15414" y2="-15414"><stop offset="0" stop-color="#00f1ff"/><stop offset=".231" stop-color="#00d8ff"/><stop offset=".5138" stop-color="#00c0ff"/><stop offset=".7773" stop-color="#00b2ff"/><stop offset="1" stop-color="#00adff"/></linearGradient><path d="m512 256c0 141.386719-114.613281 256-256 256s-256-114.613281-256-256 114.613281-256 256-256 256 114.613281 256 256zm0 0" fill="url(#a)"/><g fill="#fff"><path d="m423.5 130.347656c0-22.523437-18.324219-40.847656-40.847656-40.847656h-253.304688c-22.523437 0-40.847656 18.324219-40.847656 40.847656v34.894532c0 8.285156 6.714844 15 15 15s15-6.714844 15-15v-34.894532c0-5.980468 4.867188-10.847656 10.847656-10.847656h111.652344v275h-111.652344c-5.980468 0-10.847656-4.867188-10.847656-10.847656v-36.1875c0-8.28125-6.714844-15-15-15s-15 6.71875-15 15v36.1875c0 22.523437 18.324219 40.847656 40.847656 40.847656h253.304688c22.523437 0 40.847656-18.324219 40.847656-40.847656v-36.1875c0-8.285156-6.714844-15-15-15-8.28125 0-15 6.714844-15 15v36.1875c0 5.980468-4.863281 10.847656-10.847656 10.847656h-111.652344v-275h111.652344c5.980468 0 10.847656 4.867188 10.847656 10.847656v34.894532c0 8.285156 6.714844 15 15 15s15-6.714844 15-15zm0 0"/><path d="m161.957031 188.269531c-5.839843-5.875-15.335937-5.90625-21.214843-.066406l-39.632813 39.394531c-7.714844 7.714844-11.960937 17.972656-11.960937 28.882813 0 10.914062 4.246093 21.167969 11.941406 28.863281l39.601562 39.753906c2.929688 2.941406 6.777344 4.414063 10.628906 4.414063 3.828126 0 7.65625-1.457031 10.585938-4.375 5.867188-5.847657 5.886719-15.34375.039062-21.210938l-31.804687-31.925781h74.164063c8.285156 0 15-6.714844 15-15s-6.714844-15-15-15h-75.128907l32.71875-32.519531c5.875-5.839844 5.902344-15.335938.0625-21.210938zm0 0"/><path d="m350.742188 325.136719c2.925781 2.917969 6.757812 4.375 10.585937 4.375 3.847656 0 7.695313-1.472657 10.625-4.414063l39.582031-39.734375c15.925782-15.925781 15.925782-41.839843-.03125-57.796875l-39.601562-39.363281c-5.875-5.839844-15.375-5.808594-21.214844.066406s-5.808594 15.371094.066406 21.210938l32.71875 32.519531h-75.128906c-8.285156 0-15 6.714844-15 15s6.714844 15 15 15h74.160156l-31.800781 31.925781c-5.847656 5.867188-5.832031 15.363281.039063 21.210938zm0 0"/></g></svg>